<?xml version="1.0" encoding="utf-8"?>
<svg width="26.333334px" height="18.230768px" viewBox="0 0 26.333334 18.230768" version="1.1" xmlns:xlink="http://www.w3.org/1999/xlink" xmlns="http://www.w3.org/2000/svg">
  <defs>
    <path d="M0 0L22.2821 0L22.2821 14.8547L0 14.8547L0 0Z" id="path_1" />
    <path d="M0 0L22.2821 0L22.2821 14.8547L0 14.8547L0 0L0 0Z" id="path_2" />
    <clipPath id="mask_1">
      <use xlink:href="#path_1" />
    </clipPath>
    <clipPath id="mask_2">
      <use xlink:href="#path_2" />
    </clipPath>
  </defs>
  <g id="Group">
    <path d="M0 0L26.3333 0L26.3333 18.2308L0 18.2308L0 0Z" id="Rectangle" fill="none" fill-rule="evenodd" stroke="none" />
    <g id="Favicon-vidim" transform="translate(2.025641 2.0256386)">
      <g id="Favicon-vidim">
        <path d="M0 0L22.2821 0L22.2821 14.8547L0 14.8547L0 0Z" id="Background" fill="none" fill-rule="evenodd" stroke="none" />
        <g clip-path="url(#mask_1)">
          <g id="Favicon-vidim">
            <path d="M0 0L22.2821 0L22.2821 14.8547L0 14.8547L0 0L0 0Z" id="Background" fill="none" fill-rule="evenodd" stroke="none" />
            <g id="Mask-group">
              <path d="M0 0L22.2821 0L22.2821 14.8547L0 14.8547L0 0L0 0Z" id="path_1" fill="none" fill-rule="evenodd" stroke="none" />
              <g clip-path="url(#mask_2)">
                <g id="Group">
                  <g id="g10">
                    <g id="g12">
                      <path d="M4.47092 5.42256L4.4419 5.42256L4.41289 5.48056L4.32295 5.59953L4.26202 5.66048L4.17498 5.77066L4.15177 5.79974C4.12276 5.86062 4.09375 5.88965 4.06183 5.95059L4.03282 5.97961C4.03282 6.03181 4.00381 6.06088 3.97479 6.11887L3.94288 6.15074L3.86164 6.26972L3.77171 6.4409L3.74269 6.52797L3.68467 6.61794L3.65565 6.67013L3.59472 6.81808L3.56571 6.87897L3.51348 7.01823L3.48447 7.04731L3.42355 7.19816L3.39453 7.25615L3.3336 7.39831L3.3336 7.45635L3.27558 7.59851L3.25237 7.65656L3.19434 7.80741L3.19434 7.83643C3.16533 7.88868 3.16533 7.94667 3.13341 8.00761L3.13341 8.03663C3.1044 8.09468 3.1044 8.18459 3.07539 8.23684C2.98544 8.58499 2.90421 8.93605 2.84328 9.31317C2.84328 9.45539 2.81427 9.63236 2.78526 9.77452C2.78526 9.86443 2.78526 9.92247 2.75625 10.0124C2.75625 10.0937 2.75625 10.1546 2.75625 10.2416C2.72723 10.5607 2.69532 10.8799 2.69532 11.1991L2.69532 11.231C2.69532 11.289 2.69532 11.3703 2.69532 11.4602L2.69532 11.7213L4.73203 11.7213C5.13242 12.6787 5.74169 13.5462 6.46993 14.2744L0 14.2744L0 11.3122C0 7.30834 1.04737 4.44193 3.16533 2.66627C5.25137 0.899376 8.70398 0 13.5462 0L13.5172 0L21.3827 0L21.3827 2.93321C21.3827 6.76009 20.4252 9.57432 18.5104 11.3703C18.7686 10.5927 18.9484 9.77452 18.9484 8.90413C18.9484 7.91765 18.7396 6.96604 18.3682 6.08985C18.6264 5.13245 18.7396 4.03283 18.7396 2.78526L18.7396 2.52411L15.2638 2.52411C14.1555 1.91485 12.9079 1.53768 11.5501 1.53768C9.31323 1.53768 7.3084 2.55605 5.95059 4.12277C5.45155 4.47089 4.96124 4.8713 4.47092 5.42256L4.47092 5.42256L4.47092 5.42256Z" id="path14" fill="#FFFFFF" fill-rule="evenodd" stroke="none" />
                      <path d="M4.47092 5.42256L4.44191 5.42256L4.41289 5.48056L4.32295 5.59953L4.26202 5.66048L4.17498 5.77066L4.17498 5.79974L0.928421 5.79974C1.44775 4.5231 2.17598 3.48447 3.16533 2.66627C5.25137 0.899376 8.70398 0 13.5462 0L13.5172 0L21.3827 0L21.3827 2.93321C21.3827 3.97482 21.3246 4.9322 21.1824 5.79974L18.4494 5.79974C18.6583 4.90324 18.7396 3.91384 18.7396 2.78526L18.7396 2.52411L12.5075 2.52411C12.4176 2.52411 12.2986 2.52411 12.2174 2.52411L12.1885 2.52411L12.0985 2.55605C12.0114 2.55605 11.9215 2.55605 11.8693 2.55605L11.7794 2.55605C11.6894 2.55605 11.6023 2.55605 11.5211 2.55605L11.4892 2.55605C11.4022 2.55605 11.289 2.58509 11.199 2.58509L11.141 2.58509L10.8799 2.61405L10.6797 2.61405L10.5927 2.6373L10.5027 2.6373L10.3026 2.66627L10.1546 2.66627L10.0646 2.69531L9.98342 2.69531L9.92248 2.72724C9.83257 2.72724 9.77452 2.72724 9.69331 2.75621L9.63237 2.75621L9.45539 2.78526L9.31323 2.8143L9.25513 2.8143L9.16522 2.84326L9.05498 2.8752L8.9941 2.8752L8.90413 2.90424L8.79384 2.93321L8.73585 2.93321C7.42733 3.19435 6.00864 3.80362 4.47092 5.42256L4.47092 5.42256L4.47092 5.42256Z" id="path16" fill="#FFFFFF" fill-rule="evenodd" stroke="none" />
                      <path d="M4.47092 5.42256L4.44191 5.42256L4.41289 5.48056L4.32295 5.59953L4.26202 5.66048L4.17498 5.77066L4.17498 5.79974L0.928421 5.79974C1.44775 4.5231 2.17598 3.48447 3.16533 2.66627C5.25137 0.899376 8.70398 0 13.5462 0L13.5172 0L21.3827 0L21.3827 2.93321C21.3827 3.97482 21.3246 4.9322 21.1824 5.79974L18.4494 5.79974C18.6583 4.90324 18.7396 3.91384 18.7396 2.78526L18.7396 2.52411L12.5075 2.52411C12.4176 2.52411 12.2986 2.52411 12.2174 2.52411L12.1885 2.52411L12.0985 2.55605C12.0114 2.55605 11.9215 2.55605 11.8693 2.55605L11.7794 2.55605C11.6894 2.55605 11.6023 2.55605 11.5211 2.55605L11.4892 2.55605C11.4022 2.55605 11.289 2.58509 11.199 2.58509L11.141 2.58509L10.8799 2.61405L10.6797 2.61405L10.5927 2.6373L10.5027 2.6373L10.3026 2.66627L10.1546 2.66627L10.0646 2.69531L9.98342 2.69531L9.92248 2.72724C9.83257 2.72724 9.77452 2.72724 9.69331 2.75621L9.63237 2.75621L9.45539 2.78526L9.31323 2.8143L9.25513 2.8143L9.16522 2.84326L9.05498 2.8752L8.9941 2.8752L8.90413 2.90424L8.79384 2.93321L8.73585 2.93321C7.42733 3.19435 6.00864 3.80362 4.47092 5.42256L4.47092 5.42256L4.47092 5.42256Z" id="path18" fill="#FFFFFF" fill-rule="evenodd" stroke="none" />
                      <path d="M11.5501 3.56572C14.5066 3.56572 16.9117 5.95059 16.9117 8.90413C16.9117 11.8693 14.5066 14.2744 11.5501 14.2744C8.61692 14.2744 6.20878 11.8693 6.20878 8.90413C6.20878 5.95059 8.61692 3.56572 11.5501 3.56572L11.5501 3.56572L11.5501 3.56572Z" id="path20" fill="#FFFFFF" fill-rule="evenodd" stroke="none" />
                    </g>
                  </g>
                </g>
              </g>
            </g>
          </g>
        </g>
      </g>
    </g>
  </g>
</svg>